<mxfile host="Electron" modified="2023-07-03T12:01:59.626Z" agent="Mozilla/5.0 (Windows NT 10.0; Win64; x64) AppleWebKit/537.36 (KHTML, like Gecko) draw.io/21.2.1 Chrome/112.0.5615.87 Electron/24.1.2 Safari/537.36" etag="Ya22itMqweew98E09OwC" version="21.2.1" type="device">
  <diagram id="O5IIzvsQKv1JL9Lo6wNt" name="Page-1">
    <mxGraphModel dx="2048" dy="1190" grid="1" gridSize="10" guides="1" tooltips="1" connect="1" arrows="1" fold="1" page="1" pageScale="1" pageWidth="827" pageHeight="1169" math="0" shadow="0">
      <root>
        <mxCell id="0" />
        <mxCell id="1" parent="0" />
        <mxCell id="zQdDD5nqRcOn2XXxSVmv-15" value="" style="rounded=0;whiteSpace=wrap;html=1;" parent="1" vertex="1">
          <mxGeometry x="-620" y="40" width="600" height="460" as="geometry" />
        </mxCell>
        <mxCell id="zQdDD5nqRcOn2XXxSVmv-16" value="Login" style="ellipse;whiteSpace=wrap;html=1;" parent="1" vertex="1">
          <mxGeometry x="-280" y="100" width="200" height="50" as="geometry" />
        </mxCell>
        <mxCell id="zQdDD5nqRcOn2XXxSVmv-17" value="Einsehen von Anwesenheitsdaten" style="ellipse;whiteSpace=wrap;html=1;" parent="1" vertex="1">
          <mxGeometry x="-320" y="180" width="200" height="50" as="geometry" />
        </mxCell>
        <mxCell id="zQdDD5nqRcOn2XXxSVmv-18" value="Verwalten von eigenen Anwesenheisdaten" style="ellipse;whiteSpace=wrap;html=1;" parent="1" vertex="1">
          <mxGeometry x="-310" y="270" width="200" height="50" as="geometry" />
        </mxCell>
        <mxCell id="zQdDD5nqRcOn2XXxSVmv-23" style="rounded=0;orthogonalLoop=1;jettySize=auto;html=1;entryX=1;entryY=0.5;entryDx=0;entryDy=0;endArrow=none;endFill=0;" parent="1" target="zQdDD5nqRcOn2XXxSVmv-16" edge="1">
          <mxGeometry relative="1" as="geometry">
            <mxPoint x="20" y="140" as="sourcePoint" />
          </mxGeometry>
        </mxCell>
        <mxCell id="zQdDD5nqRcOn2XXxSVmv-24" style="rounded=0;orthogonalLoop=1;jettySize=auto;html=1;entryX=1;entryY=0.5;entryDx=0;entryDy=0;endArrow=none;endFill=0;" parent="1" source="zQdDD5nqRcOn2XXxSVmv-19" target="zQdDD5nqRcOn2XXxSVmv-17" edge="1">
          <mxGeometry relative="1" as="geometry" />
        </mxCell>
        <mxCell id="zQdDD5nqRcOn2XXxSVmv-26" style="rounded=0;orthogonalLoop=1;jettySize=auto;html=1;entryX=1;entryY=0.5;entryDx=0;entryDy=0;endArrow=none;endFill=0;" parent="1" source="zQdDD5nqRcOn2XXxSVmv-19" target="zQdDD5nqRcOn2XXxSVmv-18" edge="1">
          <mxGeometry relative="1" as="geometry" />
        </mxCell>
        <mxCell id="zQdDD5nqRcOn2XXxSVmv-19" value="Nutzer" style="shape=umlActor;verticalLabelPosition=bottom;verticalAlign=top;html=1;outlineConnect=0;" parent="1" vertex="1">
          <mxGeometry x="22" y="120" width="30" height="60" as="geometry" />
        </mxCell>
        <mxCell id="zQdDD5nqRcOn2XXxSVmv-20" value="Admin" style="shape=umlActor;verticalLabelPosition=bottom;verticalAlign=top;html=1;outlineConnect=0;" parent="1" vertex="1">
          <mxGeometry x="22" y="380" width="30" height="60" as="geometry" />
        </mxCell>
        <mxCell id="zQdDD5nqRcOn2XXxSVmv-29" style="edgeStyle=orthogonalEdgeStyle;rounded=0;orthogonalLoop=1;jettySize=auto;html=1;entryX=0;entryY=0.5;entryDx=0;entryDy=0;dashed=1;" parent="1" source="zQdDD5nqRcOn2XXxSVmv-28" target="zQdDD5nqRcOn2XXxSVmv-16" edge="1">
          <mxGeometry relative="1" as="geometry" />
        </mxCell>
        <mxCell id="zQdDD5nqRcOn2XXxSVmv-28" value="Nutzer Authentifizieren" style="ellipse;whiteSpace=wrap;html=1;" parent="1" vertex="1">
          <mxGeometry x="-500" y="102.5" width="150" height="45" as="geometry" />
        </mxCell>
        <mxCell id="zQdDD5nqRcOn2XXxSVmv-30" value="&amp;lt;&amp;lt;include&amp;gt;&amp;gt;" style="text;html=1;strokeColor=none;fillColor=none;align=center;verticalAlign=middle;whiteSpace=wrap;rounded=0;" parent="1" vertex="1">
          <mxGeometry x="-348" y="99" width="60" height="30" as="geometry" />
        </mxCell>
        <mxCell id="zQdDD5nqRcOn2XXxSVmv-32" style="rounded=0;orthogonalLoop=1;jettySize=auto;html=1;endArrow=none;endFill=0;exitX=1;exitY=0.5;exitDx=0;exitDy=0;" parent="1" source="zQdDD5nqRcOn2XXxSVmv-31" edge="1">
          <mxGeometry relative="1" as="geometry">
            <mxPoint x="10" y="400" as="targetPoint" />
          </mxGeometry>
        </mxCell>
        <mxCell id="zQdDD5nqRcOn2XXxSVmv-31" value="Verwalten aller Anwesenheisdaten" style="ellipse;whiteSpace=wrap;html=1;" parent="1" vertex="1">
          <mxGeometry x="-310" y="370" width="200" height="50" as="geometry" />
        </mxCell>
        <mxCell id="zQdDD5nqRcOn2XXxSVmv-33" value="&lt;font style=&quot;font-size: 18px;&quot;&gt;Anwesenheitsplaner&lt;/font&gt;" style="text;html=1;strokeColor=none;fillColor=none;align=center;verticalAlign=middle;whiteSpace=wrap;rounded=0;" parent="1" vertex="1">
          <mxGeometry x="-403" y="40" width="160" height="30" as="geometry" />
        </mxCell>
        <mxCell id="zQdDD5nqRcOn2XXxSVmv-36" style="edgeStyle=none;rounded=0;orthogonalLoop=1;jettySize=auto;html=1;startArrow=none;startFill=0;" parent="1" edge="1">
          <mxGeometry relative="1" as="geometry">
            <mxPoint x="40" y="210" as="targetPoint" />
            <mxPoint x="40" y="369" as="sourcePoint" />
          </mxGeometry>
        </mxCell>
        <mxCell id="zQdDD5nqRcOn2XXxSVmv-37" value="Wochenenden und&lt;br&gt;&amp;nbsp;Feiertage sehen" style="ellipse;whiteSpace=wrap;html=1;" parent="1" vertex="1">
          <mxGeometry x="-573" y="182.5" width="170" height="45" as="geometry" />
        </mxCell>
        <mxCell id="zQdDD5nqRcOn2XXxSVmv-38" style="edgeStyle=orthogonalEdgeStyle;rounded=0;orthogonalLoop=1;jettySize=auto;html=1;dashed=1;exitX=1;exitY=0.5;exitDx=0;exitDy=0;" parent="1" source="zQdDD5nqRcOn2XXxSVmv-37" edge="1">
          <mxGeometry relative="1" as="geometry">
            <mxPoint x="-390" y="205" as="sourcePoint" />
            <mxPoint x="-320" y="205" as="targetPoint" />
          </mxGeometry>
        </mxCell>
        <mxCell id="zQdDD5nqRcOn2XXxSVmv-39" value="&amp;lt;&amp;lt;extend&amp;gt;&amp;gt;" style="text;html=1;strokeColor=none;fillColor=none;align=center;verticalAlign=middle;whiteSpace=wrap;rounded=0;" parent="1" vertex="1">
          <mxGeometry x="-394" y="181" width="60" height="30" as="geometry" />
        </mxCell>
        <mxCell id="zQdDD5nqRcOn2XXxSVmv-41" value="Aktuellen Tag markiert sehen" style="ellipse;whiteSpace=wrap;html=1;" parent="1" vertex="1">
          <mxGeometry x="-560" y="250" width="170" height="60" as="geometry" />
        </mxCell>
        <mxCell id="zQdDD5nqRcOn2XXxSVmv-42" value="&amp;lt;&amp;lt;extend&amp;gt;&amp;gt;" style="text;html=1;strokeColor=none;fillColor=none;align=center;verticalAlign=middle;whiteSpace=wrap;rounded=0;" parent="1" vertex="1">
          <mxGeometry x="-370" y="235" width="60" height="30" as="geometry" />
        </mxCell>
        <mxCell id="zQdDD5nqRcOn2XXxSVmv-43" style="edgeStyle=orthogonalEdgeStyle;rounded=0;orthogonalLoop=1;jettySize=auto;html=1;entryX=0;entryY=1;entryDx=0;entryDy=0;dashed=1;exitX=1;exitY=0.5;exitDx=0;exitDy=0;" parent="1" source="zQdDD5nqRcOn2XXxSVmv-41" target="zQdDD5nqRcOn2XXxSVmv-17" edge="1">
          <mxGeometry relative="1" as="geometry">
            <mxPoint x="-340" y="135" as="sourcePoint" />
            <mxPoint x="-270" y="135" as="targetPoint" />
            <Array as="points">
              <mxPoint x="-390" y="260" />
              <mxPoint x="-291" y="260" />
            </Array>
          </mxGeometry>
        </mxCell>
      </root>
    </mxGraphModel>
  </diagram>
</mxfile>
